<?xml version="1.0" encoding="UTF-8" standalone="no"?>
<svg
   xmlns:dc="http://purl.org/dc/elements/1.1/"
   xmlns:cc="http://creativecommons.org/ns#"
   xmlns:rdf="http://www.w3.org/1999/02/22-rdf-syntax-ns#"
   xmlns:svg="http://www.w3.org/2000/svg"
   xmlns="http://www.w3.org/2000/svg"
   xmlns:sodipodi="http://sodipodi.sourceforge.net/DTD/sodipodi-0.dtd"
   xmlns:inkscape="http://www.inkscape.org/namespaces/inkscape"
   inkscape:version="1.0 (4035a4f, 2020-05-01)"
   sodipodi:docname="fitness_image.svg"
   id="svg8"
   version="1.1"
   viewBox="0 0 406.39999 406.40001"
   height="1536"
   width="1536"
   inkscape:export-filename="/Users/mathieudelehaye/Downloads/fitness.png"
   inkscape:export-xdpi="25"
   inkscape:export-ydpi="25">
  <defs
     id="defs2" />
  <sodipodi:namedview
     inkscape:window-maximized="0"
     inkscape:window-y="23"
     inkscape:window-x="1440"
     inkscape:window-height="962"
     inkscape:window-width="1920"
     units="px"
     showgrid="false"
     inkscape:document-rotation="0"
     inkscape:current-layer="layer1"
     inkscape:document-units="mm"
     inkscape:cy="1025.1081"
     inkscape:cx="787.70752"
     inkscape:zoom="0.30519361"
     inkscape:pageshadow="2"
     inkscape:pageopacity="0.0"
     borderopacity="1.0"
     bordercolor="#666666"
     pagecolor="#ffffff"
     id="base" />
  <metadata
     id="metadata5">
    <rdf:RDF>
      <cc:Work
         rdf:about="">
        <dc:format>image/svg+xml</dc:format>
        <dc:type
           rdf:resource="http://purl.org/dc/dcmitype/StillImage" />
        <dc:title />
      </cc:Work>
    </rdf:RDF>
  </metadata>
  <g
     id="layer1"
     inkscape:groupmode="layer"
     inkscape:label="Layer 1">
    <rect
       y="5e-07"
       x="5e-07"
       height="406.39999"
       width="406.39999"
       id="rect1422"
       style="fill:#ffd8a6;fill-opacity:1;stroke:#ffffff;stroke-width:0;stroke-linecap:round;stroke-linejoin:round;stroke-miterlimit:4;stroke-dasharray:none;paint-order:fill markers stroke" />
    <g
       id="Layer_3"
       transform="matrix(4.7616455,0,0,-4.7616455,62.500047,215.95832)"
       style="fill:#007892;fill-opacity:1;stroke-width:0.630152;stroke-miterlimit:4;stroke-dasharray:none">
      <path
         id="path2066"
         d="m 13.913,23.322 c 0.391,0.39 1.024,0.39 1.414,0 0.391,-0.391 0.391,-1.024 0,-1.414 l -5,-5 c -0.391,-0.39 -1.024,-0.39 -1.414,0 -0.391,0.391 -0.391,1.024 0,1.414 z"
         style="fill:#007892;fill-opacity:1;stroke-width:0.630152;stroke-miterlimit:4;stroke-dasharray:none" />
      <path
         id="path2068"
         d="m 3.913,19.322 9,9 2,2 c 0.391,0.39 1.024,0.39 1.414,0 0.39,-0.391 0.39,-1.024 0,-1.414 l -2,-2 -9,-9 -2,-2 c -0.391,-0.391 -1.024,-0.391 -1.414,0 -0.391,0.391 -0.391,1.024 0,1.414 z"
         style="fill:#007892;fill-opacity:1;stroke-width:0.630152;stroke-miterlimit:4;stroke-dasharray:none" />
      <path
         id="path2070"
         d="m 11.327,31.322 c 0.391,-0.391 0.391,-1.024 0,-1.414 l -9,-9 c -0.391,-0.39 -1.024,-0.39 -1.414,0 -0.391,0.391 -0.391,1.024 0,1.414 l 9,9 c 0.39,0.391 1.024,0.391 1.414,0 z"
         style="fill:#007892;fill-opacity:1;stroke-width:0.630152;stroke-miterlimit:4;stroke-dasharray:none" />
      <path
         id="path2072"
         d="m 17.913,5.322 9,9 2,2 c 0.39,0.39 1.024,0.39 1.414,0 0.39,-0.391 0.39,-1.024 0,-1.414 l -2,-2 -9,-9 -2,-2 c -0.391,-0.39 -1.024,-0.39 -1.414,0 -0.391,0.391 -0.391,1.024 0,1.414 z"
         style="fill:#007892;fill-opacity:1;stroke-width:0.630152;stroke-miterlimit:4;stroke-dasharray:none" />
      <path
         id="path2074"
         d="m 23.327,15.322 c 0.39,-0.391 0.39,-1.024 0,-1.414 l -5,-5 c -0.391,-0.391 -1.024,-0.391 -1.414,0 -0.391,0.391 -0.391,1.024 0,1.414 l 5,5 c 0.39,0.391 1.024,0.391 1.414,0 z"
         style="fill:#007892;fill-opacity:1;stroke-width:0.630152;stroke-miterlimit:4;stroke-dasharray:none" />
      <path
         id="path2076"
         d="m 29.913,11.322 c 0.39,0.391 1.024,0.391 1.414,0 0.39,-0.391 0.39,-1.024 0,-1.414 l -9,-9 c -0.391,-0.391 -1.024,-0.391 -1.414,0 -0.391,0.391 -0.391,1.024 0,1.414 z"
         style="fill:#007892;fill-opacity:1;stroke-width:0.630152;stroke-miterlimit:4;stroke-dasharray:none" />
      <polygon
         id="polygon2078"
         points=""
         style="fill:#007892;fill-opacity:1;stroke-width:0.630152;stroke-miterlimit:4;stroke-dasharray:none" />
      <path
         id="path2080"
         d="M 28.948,7.529 29.241,7.236 C 29.825,6.653 30.121,5.879 30.12,5.115 30.121,4.35 29.825,3.577 29.241,2.994 28.658,2.41 27.884,2.114 27.12,2.115 26.355,2.114 25.582,2.41 24.999,2.994 L 24.706,3.287 22.327,0.908 C 21.719,0.3 20.913,-0.001 20.12,0 19.327,-0.001 18.521,0.3 17.913,0.908 v 0 C 17.63,1.19 17.421,1.517 17.27,1.861 16.669,1.289 15.89,0.999 15.12,1 14.327,0.999 13.521,1.3 12.913,1.908 v 0 C 12.298,2.52 11.998,3.33 12,4.115 11.998,4.9 12.298,5.71 12.913,6.322 v 0 l 4.393,4.393 -6.586,6.586 -4.393,-4.393 C 5.719,12.3 4.913,11.999 4.12,12 3.327,11.999 2.521,12.3 1.913,12.908 v 0 C 1.298,13.52 0.998,14.33 1,15.115 c -0.003,0.763 0.288,1.546 0.868,2.152 -0.346,0.15 -0.673,0.359 -0.955,0.641 v 0 C 0.298,18.52 -0.002,19.33 0,20.115 -0.002,20.9 0.298,21.71 0.913,22.322 v 0 l 2.379,2.379 -0.313,0.313 v 0 0 c -0.584,0.583 -0.88,1.357 -0.879,2.121 -10e-4,0.764 0.295,1.538 0.879,2.121 0.104,0.104 0.301,0.18 0.501,0.229 0.516,0.423 1.085,0.65 1.736,0.649 0.764,0.001 1.48,-0.295 2.063,-0.879 h -0.03 l 0.297,-0.301 2.366,2.366 v 0 c 0.608,0.608 1.414,0.909 2.207,0.908 0.793,10e-4 1.599,-0.3 2.207,-0.908 0.282,-0.282 0.491,-0.609 0.641,-0.955 0.601,0.574 1.381,0.864 2.152,0.863 0.793,10e-4 1.599,-0.3 2.207,-0.908 0.608,-0.608 0.909,-1.414 0.908,-2.207 10e-4,-0.793 -0.3,-1.599 -0.908,-2.207 v 0 l -4.373,-4.373 6.586,-6.586 4.373,4.373 c 0.608,0.608 1.414,0.909 2.207,0.908 0.793,10e-4 1.599,-0.3 2.207,-0.908 0.608,-0.608 0.909,-1.414 0.908,-2.207 10e-4,-0.771 -0.289,-1.55 -0.863,-2.152 0.346,-0.15 0.673,-0.359 0.955,-0.641 0.608,-0.608 0.909,-1.414 0.908,-2.207 10e-4,-0.793 -0.3,-1.599 -0.908,-2.207 z M 4.148,27.608 C 4.092,27.573 4.027,27.55 3.917,27.55 h 0.231 z m 1.658,0.235 C 5.608,28.04 5.358,28.135 5.099,28.136 4.902,28.135 4.719,28.062 4.552,27.949 L 4.623,27.843 C 4.426,27.645 4.216,27.395 4.214,27.136 4.215,26.877 4.252,26.627 4.449,26.429 H 4.42 L 4.405,26.415 4.698,26.122 6.112,27.536 Z M 29.913,12.908 c -0.212,0.212 -0.496,0.321 -0.793,0.322 -0.297,-0.001 -0.581,-0.11 -0.793,-0.322 -0.003,-0.003 -0.006,-0.003 -0.009,-0.006 -0.092,-0.09 -0.199,-0.162 -0.317,-0.211 -0.244,-0.1 -0.518,-0.1 -0.762,0 -0.121,0.05 -0.233,0.123 -0.326,0.217 -0.093,0.093 -0.167,0.205 -0.216,0.326 -0.1,0.244 -0.1,0.518 0,0.762 0.05,0.121 0.123,0.233 0.217,0.326 0,0 0,0 0,0 l 2,2 c 0.212,0.212 0.321,0.496 0.322,0.793 -0.001,0.297 -0.11,0.581 -0.322,0.793 -0.212,0.212 -0.496,0.321 -0.793,0.322 -0.297,-0.001 -0.581,-0.11 -0.793,-0.322 l -5.08,-5.08 c -0.391,-0.391 -1.024,-0.391 -1.414,0 l -8,8 c -0.186,0.186 -0.293,0.444 -0.293,0.707 0,0.263 0.107,0.521 0.293,0.707 l 5.08,5.08 v 0 c 0.212,0.212 0.321,0.496 0.322,0.793 -0.001,0.297 -0.11,0.581 -0.322,0.793 -0.212,0.212 -0.496,0.321 -0.793,0.322 -0.297,-0.001 -0.581,-0.11 -0.793,-0.322 l -2,-2 c -0.093,-0.094 -0.205,-0.167 -0.326,-0.217 -0.121,-0.05 -0.25,-0.076 -0.379,-0.076 0,0 -10e-4,0 -0.002,0 -0.13,0 -0.259,0.026 -0.381,0.076 -0.121,0.05 -0.233,0.123 -0.326,0.217 -0.093,0.093 -0.167,0.205 -0.216,0.326 -0.05,0.122 -0.076,0.251 -0.076,0.381 0,0.001 0,0.001 0,0.002 0,0.129 0.026,0.258 0.076,0.379 0.049,0.118 0.121,0.226 0.211,0.318 0.003,0.003 0.003,0.006 0.006,0.009 v 0 c 0.212,0.212 0.321,0.496 0.322,0.793 -10e-4,0.297 -0.11,0.581 -0.322,0.793 -0.212,0.212 -0.496,0.321 -0.793,0.322 -0.297,-0.001 -0.581,-0.11 -0.793,-0.322 l -9,-9 C 2.102,20.68 2.003,20.41 2,20.115 2.003,19.82 2.102,19.55 2.327,19.322 2.539,19.11 2.824,19.001 3.12,19 c 0.297,0.001 0.581,0.11 0.793,0.322 v 0 c 0.003,0.003 0.006,0.003 0.009,0.006 0.092,0.09 0.199,0.162 0.317,0.211 0.118,0.049 0.243,0.072 0.369,0.074 0.004,0 0.008,0.002 0.012,0.002 0.003,0 0.006,-0.002 0.009,-0.002 0.127,-0.001 0.253,-0.026 0.372,-0.075 0.121,-0.05 0.233,-0.123 0.326,-0.217 0.094,-0.094 0.167,-0.205 0.217,-0.326 0.1,-0.244 0.1,-0.518 0,-0.762 C 5.494,18.112 5.421,18 5.327,17.907 l -2,-2 C 3.102,15.68 3.003,15.41 3,15.115 3.003,14.82 3.102,14.55 3.327,14.322 3.539,14.11 3.824,14.001 4.12,14 c 0.297,10e-4 0.581,0.11 0.793,0.322 l 5.1,5.1 c 0.186,0.186 0.444,0.293 0.707,0.293 0.263,0 0.521,-0.107 0.707,-0.293 l 8,-8 c 0.186,-0.186 0.293,-0.444 0.293,-0.707 0,-0.263 -0.107,-0.521 -0.293,-0.707 l -5.1,-5.1 C 14.102,4.68 14.003,4.41 14,4.115 14.003,3.82 14.102,3.55 14.327,3.322 14.539,3.11 14.824,3.001 15.12,3 c 0.297,10e-4 0.581,0.11 0.793,0.322 l 2,2 c 0.006,0.006 0.013,0.007 0.019,0.013 0.09,0.086 0.193,0.157 0.307,0.204 0.121,0.05 0.25,0.076 0.379,0.076 0.001,0 0.001,0 0.001,0 0.13,0 0.26,-0.026 0.382,-0.076 0.121,-0.05 0.233,-0.123 0.326,-0.217 0.093,-0.093 0.167,-0.205 0.217,-0.326 0.05,-0.122 0.076,-0.251 0.076,-0.381 0,-0.001 0,-0.001 0,-0.002 0,-0.129 -0.026,-0.258 -0.076,-0.379 C 19.497,4.119 19.425,4.015 19.339,3.924 19.334,3.919 19.333,3.912 19.328,3.907 19.102,3.68 19.003,3.41 19,3.115 19.003,2.82 19.102,2.55 19.327,2.322 19.539,2.11 19.824,2.001 20.12,2 c 0.297,10e-4 0.581,0.11 0.793,0.322 l 3.086,3.086 c 0.186,0.186 0.444,0.293 0.707,0.293 0.263,0 0.521,-0.107 0.707,-0.293 l 1,-1 c 0.198,-0.197 0.448,-0.292 0.707,-0.293 0.259,10e-4 0.509,0.096 0.707,0.293 v 0 c 0.197,0.198 0.292,0.448 0.293,0.707 -0.001,0.259 -0.096,0.509 -0.293,0.707 l -1,1 c -0.186,0.186 -0.293,0.444 -0.293,0.707 0,0.263 0.107,0.521 0.293,0.707 l 3.086,3.086 c 0.212,0.212 0.321,0.496 0.322,0.793 -10e-4,0.297 -0.11,0.581 -0.322,0.793 z"
         style="fill:#007892;fill-opacity:1;stroke-width:0.630152;stroke-miterlimit:4;stroke-dasharray:none" />
    </g>
    <path
       style="fill:#fc8210;fill-opacity:1;stroke-width:3.02647;stroke-miterlimit:4;stroke-dasharray:none"
       d="m 213.8271,348.59285 c -21.77156,0 -41.48177,-11.89877 -48.62288,-31.5159 -9.41472,-25.87003 6.54525,-55.51453 35.57708,-66.08004 v 0 a 58.510579,58.510632 0 0 1 47.61363,2.70935 43.885729,43.885768 0 0 0 35.63107,3.16556 l 0.94596,-0.34262 a 2.515683,2.5156852 0 0 1 3.22887,1.5083 l 9.1708,25.19784 a 2.5212696,2.5212718 0 0 1 -1.50455,3.23073 l -0.94222,0.34447 a 43.891314,43.891354 0 0 0 -25.25931,25.32446 58.495683,58.495736 0 0 1 -34.72981,32.68901 61.713374,61.71343 0 0 1 -21.10864,3.76888 z m -11.31965,-92.85879 c -26.42117,9.6177 -41.02742,36.36108 -32.56235,59.61859 8.46506,23.25753 36.84517,34.35185 63.26449,24.73789 a 53.455005,53.455053 0 0 0 31.77283,-29.81393 49.140545,49.140589 0 0 1 26.79736,-27.6465 l -7.46514,-20.51838 a 49.112613,49.112657 0 0 1 -38.30506,-3.96251 53.45873,53.458778 0 0 0 -43.50213,-2.42074 z"
       fill="#3b0e1e"
       id="path1462" />
    <path
       style="fill:#fc8210;fill-opacity:1;stroke-width:3.02647;stroke-miterlimit:4;stroke-dasharray:none"
       d="m 292.81134,280.60602 a 2.5194074,2.5194096 0 0 1 -2.36862,-1.65913 l -4.79111,-13.16125 a 2.5194074,2.5194096 0 0 1 1.50642,-3.23073 l 28.03566,-10.20611 a 11.679026,11.679037 0 1 1 21.56671,2.28663 11.667854,11.667865 0 1 1 -15.0513,15.61366 l -28.03373,10.20424 a 2.5100968,2.510099 0 0 1 -0.86403,0.15271 z m -1.55671,-14.17423 3.06505,8.42036 28.15478,-10.24149 a 2.5212696,2.5212718 0 0 1 3.35177,1.93658 6.7835924,6.7835985 0 0 0 0.28644,1.14705 6.6364873,6.6364932 0 1 0 6.23423,-8.87288 c -0.0493,0 -0.0949,0 -0.14497,0 a 2.5212696,2.5212718 0 0 1 -1.58836,-4.47831 6.6160045,6.6160104 0 1 0 -10.39607,-2.85272 v 0 a 6.5526933,6.5526991 0 0 0 0.51587,1.05579 2.5231315,2.5231337 0 0 1 -1.31831,3.63666 z"
       fill="#3b0e1e"
       id="path1468" />
    <path
       style="fill:#fc8210;fill-opacity:1;stroke:#ffffff;stroke-width:0;stroke-linecap:round;stroke-linejoin:round;stroke-miterlimit:4;stroke-dasharray:none;paint-order:fill markers stroke"
       d="m 208.00156,343.37357 c -11.63563,-1.30465 -22.15673,-6.414 -29.75528,-14.45007 -13.14856,-13.90558 -14.35784,-34.9329 -2.99528,-52.08223 7.90176,-11.92601 20.39667,-20.22703 35.55599,-23.62171 3.10413,-0.69512 4.47892,-0.79654 10.78099,-0.79526 5.73421,0.001 7.82578,0.13237 10.14679,0.6366 4.98264,1.08248 9.23616,2.59715 15.13419,5.38928 9.06672,4.29216 14.55429,5.62774 23.0453,5.60881 4.9157,-0.011 9.34081,-0.57341 12.87155,-1.636 1.86086,-0.56004 1.53054,-0.97469 3.1307,3.93022 0.52462,1.60801 1.05855,3.07844 1.18655,3.26762 0.12797,0.18917 0.43055,1.04047 0.67239,1.89177 0.24184,0.85131 0.55718,1.70261 0.70073,1.89179 0.14355,0.18917 0.37167,0.8083 0.50693,1.37583 0.13527,0.56753 0.4494,1.49623 0.69809,2.06376 1.64132,3.74561 2.28614,5.83395 1.84562,5.97723 -0.25249,0.0822 -1.75975,0.82778 -3.34949,1.65702 -8.85416,4.61846 -17.08545,12.99692 -21.11754,21.4951 -5.94145,12.52245 -8.04938,15.8823 -13.28859,21.18093 -10.00282,10.11623 -23.50872,15.88619 -38.37452,16.3943 -2.4593,0.0841 -5.7871,0.005 -7.39512,-0.17499 z"
       id="path3299" />
    <path
       style="fill:#fc8210;fill-opacity:1;stroke-width:3.02647;stroke-miterlimit:4;stroke-dasharray:none"
       d="m 251.91242,315.08262 a 2.5231315,2.5231337 0 0 1 -2.00174,-4.05374 45.181742,45.181783 0 0 0 6.97351,-13.12961 2.5231315,2.5231337 0 0 1 4.78372,1.60327 50.192624,50.192669 0 0 1 -7.75189,14.59692 2.5138209,2.5138231 0 0 1 -2.0036,0.98316 z"
       fill="#3b0e1e"
       id="path1464" />
    <path
       style="fill:#fc8210;fill-opacity:1;stroke-width:3.02647;stroke-miterlimit:4;stroke-dasharray:none"
       d="M 214.01891,333.76873 A 50.362073,50.362118 0 0 1 182.0915,322.41 a 2.5212696,2.5212718 0 1 1 3.19907,-3.89739 45.434986,45.435027 0 0 0 44.16691,7.50423 2.5212696,2.5212718 0 1 1 1.72616,4.73717 50.181454,50.181499 0 0 1 -17.16473,3.01472 z"
       fill="#3b0e1e"
       id="path1466" />
    <path
       style="fill:#ffd8a6;fill-opacity:1;stroke:#ffffff;stroke-width:0;stroke-linecap:round;stroke-linejoin:round;stroke-miterlimit:4;stroke-dasharray:none;paint-order:fill markers stroke"
       d="m 206.80494,333.38595 c -8.60513,-1.25313 -18.71712,-5.65494 -24.34779,-10.59873 -1.51153,-1.32715 -1.75145,-2.99718 -0.59651,-4.15212 1.20751,-1.20752 2.53335,-0.88717 5.62505,1.35908 11.19611,8.13453 25.77997,10.64399 39.18087,6.74193 1.65817,-0.48282 3.33226,-0.87786 3.72017,-0.87786 2.85681,0 3.52229,3.701 0.88635,4.92935 -5.12127,2.38649 -17.15085,3.66395 -24.46814,2.59835 z"
       id="path3293" />
    <path
       style="fill:#ffd8a6;fill-opacity:1;stroke:#ffffff;stroke-width:0;stroke-linecap:round;stroke-linejoin:round;stroke-miterlimit:4;stroke-dasharray:none;paint-order:fill markers stroke"
       d="m 250.12095,314.35123 c -0.46434,-0.46435 -0.84425,-1.20718 -0.84425,-1.65075 0,-0.44357 0.86729,-2.11451 1.92733,-3.7132 2.09648,-3.16183 3.69903,-6.21896 4.94948,-9.44195 1.06738,-2.75111 1.55707,-3.26762 3.09801,-3.26762 1.33152,0 2.14948,0.62228 2.55024,1.94011 0.41391,1.3611 -2.43811,7.80564 -5.72584,12.93835 -2.62457,4.09743 -4.20475,4.94526 -5.95497,3.19506 z"
       id="path3297" />
    <path
       style="fill:#ffd8a6;fill-opacity:1;stroke:#ffffff;stroke-width:0;stroke-linecap:round;stroke-linejoin:round;stroke-miterlimit:4;stroke-dasharray:none;paint-order:fill markers stroke"
       d="m 131.0934,199.82536 c -0.68517,-0.68515 -1.24576,-2.21336 -1.24576,-3.39597 0,-2.62156 64.06971,-66.98922 66.67913,-66.98922 1.71429,0 4.95187,3.68948 4.95187,5.64306 0,0.5657 -14.58878,15.6444 -32.4195,33.50822 -32.18703,32.24677 -34.80177,34.39786 -37.96574,31.23391 z"
       id="path3301" />
    <path
       style="fill:#ffd8a6;fill-opacity:1;stroke:#ffffff;stroke-width:0;stroke-linecap:round;stroke-linejoin:round;stroke-miterlimit:4;stroke-dasharray:none;paint-order:fill markers stroke"
       d="m 132.42049,201.05262 c -1.3534,-0.58949 -2.69661,-2.25649 -2.9632,-3.67748 -0.54653,-2.9133 -1.93788,-1.37681 32.09278,-35.44083 17.95572,-17.97336 31.99793,-31.77654 32.63375,-32.07826 1.48389,-0.70415 3.89011,-0.46495 5.28021,0.52488 1.75358,1.24867 2.45785,3.90031 1.6276,6.12804 -0.51592,1.38428 -62.75806,63.60916 -64.39366,64.37577 -1.53673,0.72031 -2.88754,0.77332 -4.27748,0.16788 z"
       id="path3303" />
    <path
       style="fill:#ffd8a6;fill-opacity:1;stroke:#ffffff;stroke-width:0;stroke-linecap:round;stroke-linejoin:round;stroke-miterlimit:4;stroke-dasharray:none;paint-order:fill markers stroke"
       d="m 133.41555,201.51441 c -2.00712,-0.40288 -3.61733,-1.9981 -4.06983,-4.03199 -0.28616,-1.28622 -0.0242,-2.81684 0.67437,-3.94023 0.18608,-0.29924 7.68332,-7.86343 21.23222,-21.42192 l 20.94452,-20.95934 h 7.5097 7.5097 l -24.25005,24.25885 c -13.33752,13.34236 -24.53513,24.50546 -24.88356,24.8069 -0.71516,0.61866 -1.53543,1.05362 -2.34853,1.24534 -0.58751,0.13851 -1.7351,0.15949 -2.31854,0.0424 z"
       id="path3305" />
    <path
       style="fill:#ffd8a6;fill-opacity:1;stroke:#ffffff;stroke-width:0;stroke-linecap:round;stroke-linejoin:round;stroke-miterlimit:4;stroke-dasharray:none;paint-order:fill markers stroke"
       d="m 157.40065,206.31418 c -2.00669,-0.33592 -3.78367,-2.01131 -4.24549,-4.00275 -0.29862,-1.2877 -0.002,-2.97926 0.70854,-4.0335 0.21611,-0.32089 8.64607,-8.80991 22.28322,-22.43933 19.92043,-19.90916 21.98719,-21.94881 22.49715,-22.20215 3.26403,-1.62159 7.00839,0.15249 7.66793,3.63306 0.25127,1.32598 -0.0558,2.87108 -0.78818,3.96641 -0.18802,0.28117 -9.42399,9.57782 -22.16876,22.31437 -23.96839,23.95295 -22.20137,22.26451 -23.70265,22.64849 -0.64197,0.16418 -1.6513,0.21591 -2.25176,0.1154 z"
       id="path3307" />
    <path
       style="fill:#ffd8a6;fill-opacity:1;stroke:#ffffff;stroke-width:0;stroke-linecap:round;stroke-linejoin:round;stroke-miterlimit:4;stroke-dasharray:none;paint-order:fill markers stroke"
       d="m 190.48504,196.16907 c -1.01504,-0.28099 -1.92059,-0.90097 -3.1128,-2.13116 l -0.41833,-0.43171 3.33796,-3.33708 3.33796,-3.3371 0.93624,0.96007 c 0.97206,0.99681 1.3285,1.54839 1.60715,2.48701 0.18468,0.62208 0.18543,1.85954 0.002,2.48572 -0.42748,1.45532 -1.57853,2.67766 -2.99523,3.18072 -0.70286,0.24958 -2.0208,0.30999 -2.69447,0.12353 z"
       id="path3309" />
    <path
       transform="scale(0.26458333)"
       style="fill:#ffd8a6;fill-opacity:1;stroke:#ffffff;stroke-width:0;stroke-linecap:round;stroke-linejoin:round;stroke-miterlimit:4;stroke-dasharray:none;paint-order:fill markers stroke"
       d=""
       id="path3311" />
    <path
       transform="scale(0.26458333)"
       style="fill:#ffd8a6;fill-opacity:1;stroke:#ffffff;stroke-width:0;stroke-linecap:round;stroke-linejoin:round;stroke-miterlimit:4;stroke-dasharray:none;paint-order:fill markers stroke"
       d=""
       id="path3313" />
    <path
       transform="scale(0.26458333)"
       style="fill:#ffd8a6;fill-opacity:1;stroke:#ffffff;stroke-width:0;stroke-linecap:round;stroke-linejoin:round;stroke-miterlimit:4;stroke-dasharray:none;paint-order:fill markers stroke"
       d=""
       id="path3315" />
    <path
       style="fill:#ffd8a6;fill-opacity:1;stroke:#ffffff;stroke-width:0;stroke-linecap:round;stroke-linejoin:round;stroke-miterlimit:4;stroke-dasharray:none;paint-order:fill markers stroke"
       d="m 136.01571,142.05895 -15.32154,-15.33451 3.16644,-3.10761 3.16645,-3.10762 15.46235,15.47545 15.46228,15.47544 -2.89688,2.96667 c -1.59329,1.63168 -3.08154,2.96668 -3.30726,2.96668 -0.2257,0 -7.30503,-6.90053 -15.73184,-15.3345 z"
       id="path3317" />
    <path
       style="fill:#ffd8a6;fill-opacity:1;stroke:#ffffff;stroke-width:0;stroke-linecap:round;stroke-linejoin:round;stroke-miterlimit:4;stroke-dasharray:none;paint-order:fill markers stroke"
       d="m 78.348276,146.77945 c -1.030883,-1.31055 -1.353188,-2.42541 -1.057188,-3.65682 0.564597,-2.34886 63.352342,-65.257811 65.726892,-65.853791 2.51191,-0.63045 5.26172,1.62024 5.54849,4.54136 0.21708,2.21126 -1.19567,3.73627 -32.03809,34.583921 -29.034853,29.03987 -32.486949,32.27067 -34.481097,32.27067 -1.579245,0 -2.64214,-0.54174 -3.699007,-1.88534 z"
       id="path3321" />
    <path
       style="fill:#ffd8a6;fill-opacity:1;stroke:#ffffff;stroke-width:0;stroke-linecap:round;stroke-linejoin:round;stroke-miterlimit:4;stroke-dasharray:none;paint-order:fill markers stroke"
       d="m 78.348276,146.77945 c -1.030883,-1.31055 -1.353188,-2.42541 -1.057188,-3.65682 0.564597,-2.34886 63.352342,-65.257811 65.726892,-65.853791 2.51191,-0.63045 5.26172,1.62024 5.54849,4.54136 0.21708,2.21126 -1.19567,3.73627 -32.03809,34.583921 -29.034853,29.03987 -32.486949,32.27067 -34.481097,32.27067 -1.579245,0 -2.64214,-0.54174 -3.699007,-1.88534 z"
       id="path3323" />
    <path
       style="fill:#ffd8a6;fill-opacity:1;stroke:#ffffff;stroke-width:0;stroke-linecap:round;stroke-linejoin:round;stroke-miterlimit:4;stroke-dasharray:none;paint-order:fill markers stroke"
       d="m 80.814097,149.08222 c -3.413689,-0.82637 -5.055211,-4.93279 -3.159532,-7.90387 0.280728,-0.43999 6.777844,-6.99259 25.886115,-26.10718 l 25.5114,-25.519747 7.4943,1.3e-4 7.49427,1.4e-4 -29.38098,29.371917 -29.380864,29.37193 -0.776788,0.3661 c -0.427233,0.20136 -0.994714,0.41093 -1.261067,0.46572 -0.651791,0.13408 -1.772645,0.11323 -2.426854,-0.0451 z"
       id="path3325" />
  </g>
</svg>
